<svg xmlns="http://www.w3.org/2000/svg" viewBox="0 0 100 100" width="40" height="40"><path fill="#9d9fce" d="M13 27a2 2 0 1 0 0 4 2 2 0 1 0 0-4Z"/><path fill="#f1bc19" d="M77 12a1 1 0 1 0 0 2 1 1 0 1 0 0-2Z"/><path fill="#e4e4f9" d="M50 13a37 37 0 1 0 0 74 37 37 0 1 0 0-74Z"/><path fill="#f1bc19" d="M83 11a4 4 0 1 0 0 8 4 4 0 1 0 0-8Z"/><path fill="#9d9fce" d="M87 22a2 2 0 1 0 0 4 2 2 0 1 0 0-4Z"/><path fill="#fbcd59" d="M81 74a2 2 0 1 0 0 4 2 2 0 1 0 0-4zM15 59a4 4 0 1 0 0 8 4 4 0 1 0 0-8z"/><path fill="#9d9fce" d="M25 85a2 2 0 1 0 0 4 2 2 0 1 0 0-4Z"/><path fill="#fff" d="M18.5 51a2.5 2.5 0 1 0 0 5 2.5 2.5 0 1 0 0-5Z"/><path fill="#f1bc19" d="M21 66a1 1 0 1 0 0 2 1 1 0 1 0 0-2Z"/><path fill="#fff" d="M80 33a1 1 0 1 0 0 2 1 1 0 1 0 0-2Z"/><path fill="#c0d078" d="M65 28c3.86 0 7 3.14 7 7v30c0 3.86-3.14 7-7 7H35c-3.86 0-7-3.14-7-7V35c0-3.86 3.14-7 7-7h30"/><path fill="#472b29" d="M65 28.4c3.639 0 6.6 2.961 6.6 6.6v30c0 3.639-2.961 6.6-6.6 6.6H35a6.608 6.608 0 0 1-6.6-6.6V35c0-3.639 2.961-6.6 6.6-6.6h30m0-1.4H35a8 8 0 0 0-8 8v30a8 8 0 0 0 8 8h30a8 8 0 0 0 8-8V35a8 8 0 0 0-8-8z"/><path fill="#fdfcee" d="M63 69H37c-3.309 0-6-2.691-6-6V37c0-3.309 2.691-6 6-6h26c3.309 0 6 2.691 6 6v26c0 3.309-2.691 6-6 6z"/><path fill="#472b29" d="M63 69H37c-3.309 0-6-2.691-6-6V37c0-3.309 2.691-6 6-6h24.625a.375.375 0 0 1 0 .75H37A5.256 5.256 0 0 0 31.75 37v26A5.256 5.256 0 0 0 37 68.25h26A5.256 5.256 0 0 0 68.25 63V48.375a.375.375 0 0 1 .75 0V63c0 3.309-2.691 6-6 6zm5.625-27a.375.375 0 0 1-.375-.375v-1.278a.375.375 0 0 1 .75 0v1.278a.375.375 0 0 1-.375.375z"/><path fill="#472b29" d="M68.625 47a.375.375 0 0 1-.375-.375v-3.25a.375.375 0 0 1 .75 0v3.25a.375.375 0 0 1-.375.375z"/><g><path fill="#e1e0d8" d="M54 37.375a8.625 8.625 0 1 0 0 17.25 8.625 8.625 0 1 0 0-17.25Z"/><path fill="#a8dbdb" d="M54 39.25a6.75 6.75 0 1 0 0 13.5 6.75 6.75 0 1 0 0-13.5Z"/><path fill="#88ae45" d="M46.039 53.961a2 2 0 0 0-2.828 0l-5.25 5.25a2 2 0 1 0 2.828 2.828l5.25-5.25a2 2 0 0 0 0-2.828z"/><path fill="#d1dc82" d="M46.039 56.789a2 2 0 1 0-2.828-2.828l2.828 2.828z"/><g fill="#472b29"><path d="M54 55c-4.962 0-9-4.038-9-9s4.038-9 9-9 9 4.038 9 9-4.038 9-9 9zm0-17.25c-4.549 0-8.25 3.701-8.25 8.25s3.701 8.25 8.25 8.25 8.25-3.701 8.25-8.25-3.701-8.25-8.25-8.25z"/><path d="M54 53c-3.86 0-7-3.14-7-7s3.14-7 7-7 7 3.14 7 7-3.14 7-7 7zm0-13.5c-3.584 0-6.5 2.916-6.5 6.5s2.916 6.5 6.5 6.5 6.5-2.916 6.5-6.5-2.916-6.5-6.5-6.5zM45.802 53.49l1.719-1.72.707.708-1.719 1.718z"/><path d="M39.375 63a2.357 2.357 0 0 1-1.679-.696c-.449-.448-.696-1.045-.696-1.679s.247-1.231.696-1.679l5.25-5.25c.896-.897 2.461-.897 3.358 0 .449.449.696 1.045.696 1.679s-.247 1.231-.696 1.679l-5.25 5.25a2.357 2.357 0 0 1-1.679.696zm5.25-9.25c-.434 0-.842.169-1.149.476l-5.25 5.25c-.307.307-.476.715-.476 1.149s.169.842.476 1.149c.614.614 1.684.614 2.298 0l5.25-5.25c.307-.307.476-.715.476-1.149s-.169-.842-.476-1.149a1.614 1.614 0 0 0-1.149-.476z"/><path d="m43.047 54.327.53-.53 2.726 2.727-.53.53zM40.5 60a.124.124 0 0 1-.119-.087l-.75-2.375a.125.125 0 1 1 .239-.075l.75 2.375a.125.125 0 0 1-.082.157.173.173 0 0 1-.038.005zm-.5 1a.124.124 0 0 1-.119-.087l-.943-2.986a.125.125 0 1 1 .239-.075l.943 2.986a.125.125 0 0 1-.082.157A.173.173 0 0 1 40 61zm-.304 1.622a.124.124 0 0 1-.119-.087l-1.258-3.985a.125.125 0 1 1 .239-.075l1.258 3.985a.125.125 0 0 1-.082.157.173.173 0 0 1-.038.005zm-.775.128a.124.124 0 0 1-.119-.087l-1.115-3.531a.125.125 0 1 1 .239-.075l1.115 3.531a.125.125 0 0 1-.082.157.173.173 0 0 1-.038.005z"/></g></g></svg>